<mxfile host="app.diagrams.net" modified="2023-02-15T14:57:16.922Z" agent="5.0 (Windows NT 10.0; Win64; x64) AppleWebKit/537.36 (KHTML, like Gecko) Chrome/108.0.0.0 Safari/537.36 OPR/94.0.0.0" etag="NAmQWACHx7TErrkevkne" version="20.8.20" type="github">
  <diagram name="Página-1" id="n-FAaKJV36Woej5UMiAB">
    <mxGraphModel dx="1316" dy="266" grid="1" gridSize="10" guides="1" tooltips="1" connect="1" arrows="1" fold="1" page="1" pageScale="1" pageWidth="827" pageHeight="1169" math="0" shadow="0">
      <root>
        <mxCell id="0" />
        <mxCell id="1" parent="0" />
        <mxCell id="2LNgUr5yJm29Q_zIvUYa-1" style="edgeStyle=orthogonalEdgeStyle;rounded=0;orthogonalLoop=1;jettySize=auto;html=1;strokeColor=default;endArrow=none;endFill=0;" edge="1" parent="1" source="2LNgUr5yJm29Q_zIvUYa-2" target="2LNgUr5yJm29Q_zIvUYa-41">
          <mxGeometry relative="1" as="geometry" />
        </mxCell>
        <mxCell id="2LNgUr5yJm29Q_zIvUYa-2" value="Empregados" style="shape=table;startSize=30;container=1;collapsible=1;childLayout=tableLayout;fixedRows=1;rowLines=0;fontStyle=1;align=center;resizeLast=1;" vertex="1" parent="1">
          <mxGeometry x="-520" y="730" width="200" height="270" as="geometry" />
        </mxCell>
        <mxCell id="2LNgUr5yJm29Q_zIvUYa-3" value="" style="shape=tableRow;horizontal=0;startSize=0;swimlaneHead=0;swimlaneBody=0;fillColor=none;collapsible=0;dropTarget=0;points=[[0,0.5],[1,0.5]];portConstraint=eastwest;top=0;left=0;right=0;bottom=1;" vertex="1" parent="2LNgUr5yJm29Q_zIvUYa-2">
          <mxGeometry y="30" width="200" height="30" as="geometry" />
        </mxCell>
        <mxCell id="2LNgUr5yJm29Q_zIvUYa-4" value="PK" style="shape=partialRectangle;connectable=0;fillColor=none;top=0;left=0;bottom=0;right=0;fontStyle=1;overflow=hidden;" vertex="1" parent="2LNgUr5yJm29Q_zIvUYa-3">
          <mxGeometry width="30" height="30" as="geometry">
            <mxRectangle width="30" height="30" as="alternateBounds" />
          </mxGeometry>
        </mxCell>
        <mxCell id="2LNgUr5yJm29Q_zIvUYa-5" value="EmpregadoID" style="shape=partialRectangle;connectable=0;fillColor=none;top=0;left=0;bottom=0;right=0;align=left;spacingLeft=6;fontStyle=5;overflow=hidden;" vertex="1" parent="2LNgUr5yJm29Q_zIvUYa-3">
          <mxGeometry x="30" width="170" height="30" as="geometry">
            <mxRectangle width="170" height="30" as="alternateBounds" />
          </mxGeometry>
        </mxCell>
        <mxCell id="2LNgUr5yJm29Q_zIvUYa-6" value="" style="shape=tableRow;horizontal=0;startSize=0;swimlaneHead=0;swimlaneBody=0;fillColor=none;collapsible=0;dropTarget=0;points=[[0,0.5],[1,0.5]];portConstraint=eastwest;top=0;left=0;right=0;bottom=0;" vertex="1" parent="2LNgUr5yJm29Q_zIvUYa-2">
          <mxGeometry y="60" width="200" height="30" as="geometry" />
        </mxCell>
        <mxCell id="2LNgUr5yJm29Q_zIvUYa-7" value="" style="shape=partialRectangle;connectable=0;fillColor=none;top=0;left=0;bottom=0;right=0;editable=1;overflow=hidden;" vertex="1" parent="2LNgUr5yJm29Q_zIvUYa-6">
          <mxGeometry width="30" height="30" as="geometry">
            <mxRectangle width="30" height="30" as="alternateBounds" />
          </mxGeometry>
        </mxCell>
        <mxCell id="2LNgUr5yJm29Q_zIvUYa-8" value="Nome" style="shape=partialRectangle;connectable=0;fillColor=none;top=0;left=0;bottom=0;right=0;align=left;spacingLeft=6;overflow=hidden;" vertex="1" parent="2LNgUr5yJm29Q_zIvUYa-6">
          <mxGeometry x="30" width="170" height="30" as="geometry">
            <mxRectangle width="170" height="30" as="alternateBounds" />
          </mxGeometry>
        </mxCell>
        <mxCell id="2LNgUr5yJm29Q_zIvUYa-9" value="" style="shape=tableRow;horizontal=0;startSize=0;swimlaneHead=0;swimlaneBody=0;fillColor=none;collapsible=0;dropTarget=0;points=[[0,0.5],[1,0.5]];portConstraint=eastwest;top=0;left=0;right=0;bottom=0;" vertex="1" parent="2LNgUr5yJm29Q_zIvUYa-2">
          <mxGeometry y="90" width="200" height="30" as="geometry" />
        </mxCell>
        <mxCell id="2LNgUr5yJm29Q_zIvUYa-10" value="" style="shape=partialRectangle;connectable=0;fillColor=none;top=0;left=0;bottom=0;right=0;editable=1;overflow=hidden;" vertex="1" parent="2LNgUr5yJm29Q_zIvUYa-9">
          <mxGeometry width="30" height="30" as="geometry">
            <mxRectangle width="30" height="30" as="alternateBounds" />
          </mxGeometry>
        </mxCell>
        <mxCell id="2LNgUr5yJm29Q_zIvUYa-11" value="Endereço" style="shape=partialRectangle;connectable=0;fillColor=none;top=0;left=0;bottom=0;right=0;align=left;spacingLeft=6;overflow=hidden;" vertex="1" parent="2LNgUr5yJm29Q_zIvUYa-9">
          <mxGeometry x="30" width="170" height="30" as="geometry">
            <mxRectangle width="170" height="30" as="alternateBounds" />
          </mxGeometry>
        </mxCell>
        <mxCell id="2LNgUr5yJm29Q_zIvUYa-12" value="" style="shape=tableRow;horizontal=0;startSize=0;swimlaneHead=0;swimlaneBody=0;fillColor=none;collapsible=0;dropTarget=0;points=[[0,0.5],[1,0.5]];portConstraint=eastwest;top=0;left=0;right=0;bottom=0;" vertex="1" parent="2LNgUr5yJm29Q_zIvUYa-2">
          <mxGeometry y="120" width="200" height="30" as="geometry" />
        </mxCell>
        <mxCell id="2LNgUr5yJm29Q_zIvUYa-13" value="" style="shape=partialRectangle;connectable=0;fillColor=none;top=0;left=0;bottom=0;right=0;editable=1;overflow=hidden;" vertex="1" parent="2LNgUr5yJm29Q_zIvUYa-12">
          <mxGeometry width="30" height="30" as="geometry">
            <mxRectangle width="30" height="30" as="alternateBounds" />
          </mxGeometry>
        </mxCell>
        <mxCell id="2LNgUr5yJm29Q_zIvUYa-14" value="Telefone" style="shape=partialRectangle;connectable=0;fillColor=none;top=0;left=0;bottom=0;right=0;align=left;spacingLeft=6;overflow=hidden;" vertex="1" parent="2LNgUr5yJm29Q_zIvUYa-12">
          <mxGeometry x="30" width="170" height="30" as="geometry">
            <mxRectangle width="170" height="30" as="alternateBounds" />
          </mxGeometry>
        </mxCell>
        <mxCell id="2LNgUr5yJm29Q_zIvUYa-15" value="" style="shape=tableRow;horizontal=0;startSize=0;swimlaneHead=0;swimlaneBody=0;fillColor=none;collapsible=0;dropTarget=0;points=[[0,0.5],[1,0.5]];portConstraint=eastwest;top=0;left=0;right=0;bottom=0;" vertex="1" parent="2LNgUr5yJm29Q_zIvUYa-2">
          <mxGeometry y="150" width="200" height="30" as="geometry" />
        </mxCell>
        <mxCell id="2LNgUr5yJm29Q_zIvUYa-16" value="" style="shape=partialRectangle;connectable=0;fillColor=none;top=0;left=0;bottom=0;right=0;editable=1;overflow=hidden;" vertex="1" parent="2LNgUr5yJm29Q_zIvUYa-15">
          <mxGeometry width="30" height="30" as="geometry">
            <mxRectangle width="30" height="30" as="alternateBounds" />
          </mxGeometry>
        </mxCell>
        <mxCell id="2LNgUr5yJm29Q_zIvUYa-17" value="Data_Nascimento" style="shape=partialRectangle;connectable=0;fillColor=none;top=0;left=0;bottom=0;right=0;align=left;spacingLeft=6;overflow=hidden;" vertex="1" parent="2LNgUr5yJm29Q_zIvUYa-15">
          <mxGeometry x="30" width="170" height="30" as="geometry">
            <mxRectangle width="170" height="30" as="alternateBounds" />
          </mxGeometry>
        </mxCell>
        <mxCell id="2LNgUr5yJm29Q_zIvUYa-18" value="" style="shape=tableRow;horizontal=0;startSize=0;swimlaneHead=0;swimlaneBody=0;fillColor=none;collapsible=0;dropTarget=0;points=[[0,0.5],[1,0.5]];portConstraint=eastwest;top=0;left=0;right=0;bottom=0;" vertex="1" parent="2LNgUr5yJm29Q_zIvUYa-2">
          <mxGeometry y="180" width="200" height="30" as="geometry" />
        </mxCell>
        <mxCell id="2LNgUr5yJm29Q_zIvUYa-19" value="" style="shape=partialRectangle;connectable=0;fillColor=none;top=0;left=0;bottom=0;right=0;editable=1;overflow=hidden;" vertex="1" parent="2LNgUr5yJm29Q_zIvUYa-18">
          <mxGeometry width="30" height="30" as="geometry">
            <mxRectangle width="30" height="30" as="alternateBounds" />
          </mxGeometry>
        </mxCell>
        <mxCell id="2LNgUr5yJm29Q_zIvUYa-20" value="CPF" style="shape=partialRectangle;connectable=0;fillColor=none;top=0;left=0;bottom=0;right=0;align=left;spacingLeft=6;overflow=hidden;" vertex="1" parent="2LNgUr5yJm29Q_zIvUYa-18">
          <mxGeometry x="30" width="170" height="30" as="geometry">
            <mxRectangle width="170" height="30" as="alternateBounds" />
          </mxGeometry>
        </mxCell>
        <mxCell id="2LNgUr5yJm29Q_zIvUYa-21" value="" style="shape=tableRow;horizontal=0;startSize=0;swimlaneHead=0;swimlaneBody=0;fillColor=none;collapsible=0;dropTarget=0;points=[[0,0.5],[1,0.5]];portConstraint=eastwest;top=0;left=0;right=0;bottom=0;" vertex="1" parent="2LNgUr5yJm29Q_zIvUYa-2">
          <mxGeometry y="210" width="200" height="30" as="geometry" />
        </mxCell>
        <mxCell id="2LNgUr5yJm29Q_zIvUYa-22" value="FK1" style="shape=partialRectangle;connectable=0;fillColor=none;top=0;left=0;bottom=0;right=0;fontStyle=0;overflow=hidden;" vertex="1" parent="2LNgUr5yJm29Q_zIvUYa-21">
          <mxGeometry width="30" height="30" as="geometry">
            <mxRectangle width="30" height="30" as="alternateBounds" />
          </mxGeometry>
        </mxCell>
        <mxCell id="2LNgUr5yJm29Q_zIvUYa-23" value="DepartamentoID" style="shape=partialRectangle;connectable=0;fillColor=none;top=0;left=0;bottom=0;right=0;align=left;spacingLeft=6;fontStyle=0;overflow=hidden;" vertex="1" parent="2LNgUr5yJm29Q_zIvUYa-21">
          <mxGeometry x="30" width="170" height="30" as="geometry">
            <mxRectangle width="170" height="30" as="alternateBounds" />
          </mxGeometry>
        </mxCell>
        <mxCell id="2LNgUr5yJm29Q_zIvUYa-24" value="" style="shape=tableRow;horizontal=0;startSize=0;swimlaneHead=0;swimlaneBody=0;fillColor=none;collapsible=0;dropTarget=0;points=[[0,0.5],[1,0.5]];portConstraint=eastwest;top=0;left=0;right=0;bottom=0;" vertex="1" parent="2LNgUr5yJm29Q_zIvUYa-2">
          <mxGeometry y="240" width="200" height="30" as="geometry" />
        </mxCell>
        <mxCell id="2LNgUr5yJm29Q_zIvUYa-25" value="FK2" style="shape=partialRectangle;connectable=0;fillColor=none;top=0;left=0;bottom=0;right=0;fontStyle=0;overflow=hidden;" vertex="1" parent="2LNgUr5yJm29Q_zIvUYa-24">
          <mxGeometry width="30" height="30" as="geometry">
            <mxRectangle width="30" height="30" as="alternateBounds" />
          </mxGeometry>
        </mxCell>
        <mxCell id="2LNgUr5yJm29Q_zIvUYa-26" value="ProjetoID" style="shape=partialRectangle;connectable=0;fillColor=none;top=0;left=0;bottom=0;right=0;align=left;spacingLeft=6;fontStyle=0;overflow=hidden;" vertex="1" parent="2LNgUr5yJm29Q_zIvUYa-24">
          <mxGeometry x="30" width="170" height="30" as="geometry">
            <mxRectangle width="170" height="30" as="alternateBounds" />
          </mxGeometry>
        </mxCell>
        <mxCell id="2LNgUr5yJm29Q_zIvUYa-27" style="edgeStyle=orthogonalEdgeStyle;rounded=0;orthogonalLoop=1;jettySize=auto;html=1;strokeColor=default;endArrow=none;endFill=0;" edge="1" parent="1" source="2LNgUr5yJm29Q_zIvUYa-28" target="2LNgUr5yJm29Q_zIvUYa-2">
          <mxGeometry relative="1" as="geometry" />
        </mxCell>
        <mxCell id="2LNgUr5yJm29Q_zIvUYa-28" value="Departamentos" style="shape=table;startSize=30;container=1;collapsible=1;childLayout=tableLayout;fixedRows=1;rowLines=0;fontStyle=1;align=center;resizeLast=1;" vertex="1" parent="1">
          <mxGeometry x="-780" y="790" width="200" height="150" as="geometry" />
        </mxCell>
        <mxCell id="2LNgUr5yJm29Q_zIvUYa-29" value="" style="shape=tableRow;horizontal=0;startSize=0;swimlaneHead=0;swimlaneBody=0;fillColor=none;collapsible=0;dropTarget=0;points=[[0,0.5],[1,0.5]];portConstraint=eastwest;top=0;left=0;right=0;bottom=1;" vertex="1" parent="2LNgUr5yJm29Q_zIvUYa-28">
          <mxGeometry y="30" width="200" height="30" as="geometry" />
        </mxCell>
        <mxCell id="2LNgUr5yJm29Q_zIvUYa-30" value="PK" style="shape=partialRectangle;connectable=0;fillColor=none;top=0;left=0;bottom=0;right=0;fontStyle=1;overflow=hidden;" vertex="1" parent="2LNgUr5yJm29Q_zIvUYa-29">
          <mxGeometry width="30" height="30" as="geometry">
            <mxRectangle width="30" height="30" as="alternateBounds" />
          </mxGeometry>
        </mxCell>
        <mxCell id="2LNgUr5yJm29Q_zIvUYa-31" value="DepartamentoID" style="shape=partialRectangle;connectable=0;fillColor=none;top=0;left=0;bottom=0;right=0;align=left;spacingLeft=6;fontStyle=5;overflow=hidden;" vertex="1" parent="2LNgUr5yJm29Q_zIvUYa-29">
          <mxGeometry x="30" width="170" height="30" as="geometry">
            <mxRectangle width="170" height="30" as="alternateBounds" />
          </mxGeometry>
        </mxCell>
        <mxCell id="2LNgUr5yJm29Q_zIvUYa-32" value="" style="shape=tableRow;horizontal=0;startSize=0;swimlaneHead=0;swimlaneBody=0;fillColor=none;collapsible=0;dropTarget=0;points=[[0,0.5],[1,0.5]];portConstraint=eastwest;top=0;left=0;right=0;bottom=0;" vertex="1" parent="2LNgUr5yJm29Q_zIvUYa-28">
          <mxGeometry y="60" width="200" height="30" as="geometry" />
        </mxCell>
        <mxCell id="2LNgUr5yJm29Q_zIvUYa-33" value="" style="shape=partialRectangle;connectable=0;fillColor=none;top=0;left=0;bottom=0;right=0;editable=1;overflow=hidden;" vertex="1" parent="2LNgUr5yJm29Q_zIvUYa-32">
          <mxGeometry width="30" height="30" as="geometry">
            <mxRectangle width="30" height="30" as="alternateBounds" />
          </mxGeometry>
        </mxCell>
        <mxCell id="2LNgUr5yJm29Q_zIvUYa-34" value="Código" style="shape=partialRectangle;connectable=0;fillColor=none;top=0;left=0;bottom=0;right=0;align=left;spacingLeft=6;overflow=hidden;" vertex="1" parent="2LNgUr5yJm29Q_zIvUYa-32">
          <mxGeometry x="30" width="170" height="30" as="geometry">
            <mxRectangle width="170" height="30" as="alternateBounds" />
          </mxGeometry>
        </mxCell>
        <mxCell id="2LNgUr5yJm29Q_zIvUYa-35" value="" style="shape=tableRow;horizontal=0;startSize=0;swimlaneHead=0;swimlaneBody=0;fillColor=none;collapsible=0;dropTarget=0;points=[[0,0.5],[1,0.5]];portConstraint=eastwest;top=0;left=0;right=0;bottom=0;" vertex="1" parent="2LNgUr5yJm29Q_zIvUYa-28">
          <mxGeometry y="90" width="200" height="30" as="geometry" />
        </mxCell>
        <mxCell id="2LNgUr5yJm29Q_zIvUYa-36" value="" style="shape=partialRectangle;connectable=0;fillColor=none;top=0;left=0;bottom=0;right=0;editable=1;overflow=hidden;" vertex="1" parent="2LNgUr5yJm29Q_zIvUYa-35">
          <mxGeometry width="30" height="30" as="geometry">
            <mxRectangle width="30" height="30" as="alternateBounds" />
          </mxGeometry>
        </mxCell>
        <mxCell id="2LNgUr5yJm29Q_zIvUYa-37" value="Nome" style="shape=partialRectangle;connectable=0;fillColor=none;top=0;left=0;bottom=0;right=0;align=left;spacingLeft=6;overflow=hidden;" vertex="1" parent="2LNgUr5yJm29Q_zIvUYa-35">
          <mxGeometry x="30" width="170" height="30" as="geometry">
            <mxRectangle width="170" height="30" as="alternateBounds" />
          </mxGeometry>
        </mxCell>
        <mxCell id="2LNgUr5yJm29Q_zIvUYa-38" value="" style="shape=tableRow;horizontal=0;startSize=0;swimlaneHead=0;swimlaneBody=0;fillColor=none;collapsible=0;dropTarget=0;points=[[0,0.5],[1,0.5]];portConstraint=eastwest;top=0;left=0;right=0;bottom=0;" vertex="1" parent="2LNgUr5yJm29Q_zIvUYa-28">
          <mxGeometry y="120" width="200" height="30" as="geometry" />
        </mxCell>
        <mxCell id="2LNgUr5yJm29Q_zIvUYa-39" value="" style="shape=partialRectangle;connectable=0;fillColor=none;top=0;left=0;bottom=0;right=0;editable=1;overflow=hidden;" vertex="1" parent="2LNgUr5yJm29Q_zIvUYa-38">
          <mxGeometry width="30" height="30" as="geometry">
            <mxRectangle width="30" height="30" as="alternateBounds" />
          </mxGeometry>
        </mxCell>
        <mxCell id="2LNgUr5yJm29Q_zIvUYa-40" value="Setor" style="shape=partialRectangle;connectable=0;fillColor=none;top=0;left=0;bottom=0;right=0;align=left;spacingLeft=6;overflow=hidden;" vertex="1" parent="2LNgUr5yJm29Q_zIvUYa-38">
          <mxGeometry x="30" width="170" height="30" as="geometry">
            <mxRectangle width="170" height="30" as="alternateBounds" />
          </mxGeometry>
        </mxCell>
        <mxCell id="2LNgUr5yJm29Q_zIvUYa-41" value="Projetos" style="shape=table;startSize=30;container=1;collapsible=1;childLayout=tableLayout;fixedRows=1;rowLines=0;fontStyle=1;align=center;resizeLast=1;" vertex="1" parent="1">
          <mxGeometry x="-260" y="775" width="200" height="180" as="geometry" />
        </mxCell>
        <mxCell id="2LNgUr5yJm29Q_zIvUYa-42" value="" style="shape=tableRow;horizontal=0;startSize=0;swimlaneHead=0;swimlaneBody=0;fillColor=none;collapsible=0;dropTarget=0;points=[[0,0.5],[1,0.5]];portConstraint=eastwest;top=0;left=0;right=0;bottom=1;" vertex="1" parent="2LNgUr5yJm29Q_zIvUYa-41">
          <mxGeometry y="30" width="200" height="30" as="geometry" />
        </mxCell>
        <mxCell id="2LNgUr5yJm29Q_zIvUYa-43" value="PK" style="shape=partialRectangle;connectable=0;fillColor=none;top=0;left=0;bottom=0;right=0;fontStyle=1;overflow=hidden;" vertex="1" parent="2LNgUr5yJm29Q_zIvUYa-42">
          <mxGeometry width="30" height="30" as="geometry">
            <mxRectangle width="30" height="30" as="alternateBounds" />
          </mxGeometry>
        </mxCell>
        <mxCell id="2LNgUr5yJm29Q_zIvUYa-44" value="ProjetoID" style="shape=partialRectangle;connectable=0;fillColor=none;top=0;left=0;bottom=0;right=0;align=left;spacingLeft=6;fontStyle=5;overflow=hidden;" vertex="1" parent="2LNgUr5yJm29Q_zIvUYa-42">
          <mxGeometry x="30" width="170" height="30" as="geometry">
            <mxRectangle width="170" height="30" as="alternateBounds" />
          </mxGeometry>
        </mxCell>
        <mxCell id="2LNgUr5yJm29Q_zIvUYa-45" value="" style="shape=tableRow;horizontal=0;startSize=0;swimlaneHead=0;swimlaneBody=0;fillColor=none;collapsible=0;dropTarget=0;points=[[0,0.5],[1,0.5]];portConstraint=eastwest;top=0;left=0;right=0;bottom=0;" vertex="1" parent="2LNgUr5yJm29Q_zIvUYa-41">
          <mxGeometry y="60" width="200" height="30" as="geometry" />
        </mxCell>
        <mxCell id="2LNgUr5yJm29Q_zIvUYa-46" value="" style="shape=partialRectangle;connectable=0;fillColor=none;top=0;left=0;bottom=0;right=0;editable=1;overflow=hidden;" vertex="1" parent="2LNgUr5yJm29Q_zIvUYa-45">
          <mxGeometry width="30" height="30" as="geometry">
            <mxRectangle width="30" height="30" as="alternateBounds" />
          </mxGeometry>
        </mxCell>
        <mxCell id="2LNgUr5yJm29Q_zIvUYa-47" value="Código_Projeto" style="shape=partialRectangle;connectable=0;fillColor=none;top=0;left=0;bottom=0;right=0;align=left;spacingLeft=6;overflow=hidden;" vertex="1" parent="2LNgUr5yJm29Q_zIvUYa-45">
          <mxGeometry x="30" width="170" height="30" as="geometry">
            <mxRectangle width="170" height="30" as="alternateBounds" />
          </mxGeometry>
        </mxCell>
        <mxCell id="2LNgUr5yJm29Q_zIvUYa-48" value="" style="shape=tableRow;horizontal=0;startSize=0;swimlaneHead=0;swimlaneBody=0;fillColor=none;collapsible=0;dropTarget=0;points=[[0,0.5],[1,0.5]];portConstraint=eastwest;top=0;left=0;right=0;bottom=0;" vertex="1" parent="2LNgUr5yJm29Q_zIvUYa-41">
          <mxGeometry y="90" width="200" height="30" as="geometry" />
        </mxCell>
        <mxCell id="2LNgUr5yJm29Q_zIvUYa-49" value="" style="shape=partialRectangle;connectable=0;fillColor=none;top=0;left=0;bottom=0;right=0;editable=1;overflow=hidden;" vertex="1" parent="2LNgUr5yJm29Q_zIvUYa-48">
          <mxGeometry width="30" height="30" as="geometry">
            <mxRectangle width="30" height="30" as="alternateBounds" />
          </mxGeometry>
        </mxCell>
        <mxCell id="2LNgUr5yJm29Q_zIvUYa-50" value="Nome" style="shape=partialRectangle;connectable=0;fillColor=none;top=0;left=0;bottom=0;right=0;align=left;spacingLeft=6;overflow=hidden;" vertex="1" parent="2LNgUr5yJm29Q_zIvUYa-48">
          <mxGeometry x="30" width="170" height="30" as="geometry">
            <mxRectangle width="170" height="30" as="alternateBounds" />
          </mxGeometry>
        </mxCell>
        <mxCell id="2LNgUr5yJm29Q_zIvUYa-51" value="" style="shape=tableRow;horizontal=0;startSize=0;swimlaneHead=0;swimlaneBody=0;fillColor=none;collapsible=0;dropTarget=0;points=[[0,0.5],[1,0.5]];portConstraint=eastwest;top=0;left=0;right=0;bottom=0;" vertex="1" parent="2LNgUr5yJm29Q_zIvUYa-41">
          <mxGeometry y="120" width="200" height="30" as="geometry" />
        </mxCell>
        <mxCell id="2LNgUr5yJm29Q_zIvUYa-52" value="" style="shape=partialRectangle;connectable=0;fillColor=none;top=0;left=0;bottom=0;right=0;editable=1;overflow=hidden;" vertex="1" parent="2LNgUr5yJm29Q_zIvUYa-51">
          <mxGeometry width="30" height="30" as="geometry">
            <mxRectangle width="30" height="30" as="alternateBounds" />
          </mxGeometry>
        </mxCell>
        <mxCell id="2LNgUr5yJm29Q_zIvUYa-53" value="Verba_Alocada" style="shape=partialRectangle;connectable=0;fillColor=none;top=0;left=0;bottom=0;right=0;align=left;spacingLeft=6;overflow=hidden;" vertex="1" parent="2LNgUr5yJm29Q_zIvUYa-51">
          <mxGeometry x="30" width="170" height="30" as="geometry">
            <mxRectangle width="170" height="30" as="alternateBounds" />
          </mxGeometry>
        </mxCell>
        <mxCell id="2LNgUr5yJm29Q_zIvUYa-54" value="" style="shape=tableRow;horizontal=0;startSize=0;swimlaneHead=0;swimlaneBody=0;fillColor=none;collapsible=0;dropTarget=0;points=[[0,0.5],[1,0.5]];portConstraint=eastwest;top=0;left=0;right=0;bottom=0;" vertex="1" parent="2LNgUr5yJm29Q_zIvUYa-41">
          <mxGeometry y="150" width="200" height="30" as="geometry" />
        </mxCell>
        <mxCell id="2LNgUr5yJm29Q_zIvUYa-55" value="FK1" style="shape=partialRectangle;connectable=0;fillColor=none;top=0;left=0;bottom=0;right=0;fontStyle=0;overflow=hidden;" vertex="1" parent="2LNgUr5yJm29Q_zIvUYa-54">
          <mxGeometry width="30" height="30" as="geometry">
            <mxRectangle width="30" height="30" as="alternateBounds" />
          </mxGeometry>
        </mxCell>
        <mxCell id="2LNgUr5yJm29Q_zIvUYa-56" value="GerenteID" style="shape=partialRectangle;connectable=0;fillColor=none;top=0;left=0;bottom=0;right=0;align=left;spacingLeft=6;fontStyle=0;overflow=hidden;" vertex="1" parent="2LNgUr5yJm29Q_zIvUYa-54">
          <mxGeometry x="30" width="170" height="30" as="geometry">
            <mxRectangle width="170" height="30" as="alternateBounds" />
          </mxGeometry>
        </mxCell>
        <mxCell id="2LNgUr5yJm29Q_zIvUYa-57" style="edgeStyle=orthogonalEdgeStyle;rounded=0;orthogonalLoop=1;jettySize=auto;html=1;strokeColor=default;endArrow=none;endFill=0;" edge="1" parent="1" source="2LNgUr5yJm29Q_zIvUYa-58" target="2LNgUr5yJm29Q_zIvUYa-41">
          <mxGeometry relative="1" as="geometry" />
        </mxCell>
        <mxCell id="2LNgUr5yJm29Q_zIvUYa-58" value="Gerente De Projeto" style="shape=table;startSize=30;container=1;collapsible=1;childLayout=tableLayout;fixedRows=1;rowLines=0;fontStyle=1;align=center;resizeLast=1;" vertex="1" parent="1">
          <mxGeometry x="-260" y="1045" width="200" height="90" as="geometry" />
        </mxCell>
        <mxCell id="2LNgUr5yJm29Q_zIvUYa-59" value="" style="shape=tableRow;horizontal=0;startSize=0;swimlaneHead=0;swimlaneBody=0;fillColor=none;collapsible=0;dropTarget=0;points=[[0,0.5],[1,0.5]];portConstraint=eastwest;top=0;left=0;right=0;bottom=0;" vertex="1" parent="2LNgUr5yJm29Q_zIvUYa-58">
          <mxGeometry y="30" width="200" height="30" as="geometry" />
        </mxCell>
        <mxCell id="2LNgUr5yJm29Q_zIvUYa-60" value="PK" style="shape=partialRectangle;connectable=0;fillColor=none;top=0;left=0;bottom=0;right=0;fontStyle=1;overflow=hidden;" vertex="1" parent="2LNgUr5yJm29Q_zIvUYa-59">
          <mxGeometry width="60" height="30" as="geometry">
            <mxRectangle width="60" height="30" as="alternateBounds" />
          </mxGeometry>
        </mxCell>
        <mxCell id="2LNgUr5yJm29Q_zIvUYa-61" value="GerenteID" style="shape=partialRectangle;connectable=0;fillColor=none;top=0;left=0;bottom=0;right=0;align=left;spacingLeft=6;fontStyle=5;overflow=hidden;" vertex="1" parent="2LNgUr5yJm29Q_zIvUYa-59">
          <mxGeometry x="60" width="140" height="30" as="geometry">
            <mxRectangle width="140" height="30" as="alternateBounds" />
          </mxGeometry>
        </mxCell>
        <mxCell id="2LNgUr5yJm29Q_zIvUYa-62" value="" style="shape=tableRow;horizontal=0;startSize=0;swimlaneHead=0;swimlaneBody=0;fillColor=none;collapsible=0;dropTarget=0;points=[[0,0.5],[1,0.5]];portConstraint=eastwest;top=0;left=0;right=0;bottom=0;" vertex="1" parent="2LNgUr5yJm29Q_zIvUYa-58">
          <mxGeometry y="60" width="200" height="30" as="geometry" />
        </mxCell>
        <mxCell id="2LNgUr5yJm29Q_zIvUYa-63" value="FK1" style="shape=partialRectangle;connectable=0;fillColor=none;top=0;left=0;bottom=0;right=0;fontStyle=0;overflow=hidden;" vertex="1" parent="2LNgUr5yJm29Q_zIvUYa-62">
          <mxGeometry width="60" height="30" as="geometry">
            <mxRectangle width="60" height="30" as="alternateBounds" />
          </mxGeometry>
        </mxCell>
        <mxCell id="2LNgUr5yJm29Q_zIvUYa-64" value="EmpregadoID" style="shape=partialRectangle;connectable=0;fillColor=none;top=0;left=0;bottom=0;right=0;align=left;spacingLeft=6;fontStyle=0;overflow=hidden;" vertex="1" parent="2LNgUr5yJm29Q_zIvUYa-62">
          <mxGeometry x="60" width="140" height="30" as="geometry">
            <mxRectangle width="140" height="30" as="alternateBounds" />
          </mxGeometry>
        </mxCell>
        <mxCell id="2LNgUr5yJm29Q_zIvUYa-65" value="DEPARTAMENTO" style="whiteSpace=wrap;html=1;align=center;fillColor=#d5e8d4;strokeColor=#82b366;" vertex="1" parent="1">
          <mxGeometry x="-783" y="80" width="100" height="40" as="geometry" />
        </mxCell>
        <mxCell id="2LNgUr5yJm29Q_zIvUYa-66" style="edgeStyle=none;rounded=0;orthogonalLoop=1;jettySize=auto;html=1;strokeColor=default;endArrow=none;endFill=0;" edge="1" parent="1" source="2LNgUr5yJm29Q_zIvUYa-67" target="2LNgUr5yJm29Q_zIvUYa-65">
          <mxGeometry relative="1" as="geometry" />
        </mxCell>
        <mxCell id="2LNgUr5yJm29Q_zIvUYa-67" value="Código" style="ellipse;whiteSpace=wrap;html=1;align=center;fontStyle=4;" vertex="1" parent="1">
          <mxGeometry x="-663" y="30" width="100" height="40" as="geometry" />
        </mxCell>
        <mxCell id="2LNgUr5yJm29Q_zIvUYa-68" style="edgeStyle=none;rounded=0;orthogonalLoop=1;jettySize=auto;html=1;strokeColor=default;endArrow=none;endFill=0;" edge="1" parent="1" source="2LNgUr5yJm29Q_zIvUYa-69" target="2LNgUr5yJm29Q_zIvUYa-65">
          <mxGeometry relative="1" as="geometry" />
        </mxCell>
        <mxCell id="2LNgUr5yJm29Q_zIvUYa-69" value="setor" style="ellipse;whiteSpace=wrap;html=1;align=center;" vertex="1" parent="1">
          <mxGeometry x="-663" y="130" width="100" height="40" as="geometry" />
        </mxCell>
        <mxCell id="2LNgUr5yJm29Q_zIvUYa-70" style="edgeStyle=none;rounded=0;orthogonalLoop=1;jettySize=auto;html=1;strokeColor=default;endArrow=none;endFill=0;" edge="1" parent="1" source="2LNgUr5yJm29Q_zIvUYa-71" target="2LNgUr5yJm29Q_zIvUYa-65">
          <mxGeometry relative="1" as="geometry" />
        </mxCell>
        <mxCell id="2LNgUr5yJm29Q_zIvUYa-71" value="nome" style="ellipse;whiteSpace=wrap;html=1;align=center;" vertex="1" parent="1">
          <mxGeometry x="-663" y="80" width="100" height="40" as="geometry" />
        </mxCell>
        <mxCell id="2LNgUr5yJm29Q_zIvUYa-72" style="orthogonalLoop=1;jettySize=auto;html=1;entryX=1;entryY=0.5;entryDx=0;entryDy=0;strokeColor=default;endArrow=none;endFill=0;rounded=0;" edge="1" parent="1" source="2LNgUr5yJm29Q_zIvUYa-79" target="2LNgUr5yJm29Q_zIvUYa-120">
          <mxGeometry relative="1" as="geometry" />
        </mxCell>
        <mxCell id="2LNgUr5yJm29Q_zIvUYa-73" value="N" style="edgeLabel;html=1;align=center;verticalAlign=middle;resizable=0;points=[];" vertex="1" connectable="0" parent="2LNgUr5yJm29Q_zIvUYa-72">
          <mxGeometry x="-0.3483" y="-1" relative="1" as="geometry">
            <mxPoint as="offset" />
          </mxGeometry>
        </mxCell>
        <mxCell id="2LNgUr5yJm29Q_zIvUYa-74" value="supervisionado&lt;br&gt;" style="edgeLabel;html=1;align=center;verticalAlign=middle;resizable=0;points=[];" vertex="1" connectable="0" parent="2LNgUr5yJm29Q_zIvUYa-72">
          <mxGeometry x="0.1374" y="-2" relative="1" as="geometry">
            <mxPoint as="offset" />
          </mxGeometry>
        </mxCell>
        <mxCell id="2LNgUr5yJm29Q_zIvUYa-75" style="rounded=0;orthogonalLoop=1;jettySize=auto;html=1;entryX=0;entryY=0.5;entryDx=0;entryDy=0;strokeColor=default;endArrow=none;endFill=0;" edge="1" parent="1" source="2LNgUr5yJm29Q_zIvUYa-79" target="2LNgUr5yJm29Q_zIvUYa-120">
          <mxGeometry relative="1" as="geometry" />
        </mxCell>
        <mxCell id="2LNgUr5yJm29Q_zIvUYa-76" value="1" style="edgeLabel;html=1;align=center;verticalAlign=middle;resizable=0;points=[];" vertex="1" connectable="0" parent="2LNgUr5yJm29Q_zIvUYa-75">
          <mxGeometry x="0.135" y="-1" relative="1" as="geometry">
            <mxPoint x="8" y="21" as="offset" />
          </mxGeometry>
        </mxCell>
        <mxCell id="2LNgUr5yJm29Q_zIvUYa-77" value="supervisor" style="edgeLabel;html=1;align=center;verticalAlign=middle;resizable=0;points=[];" vertex="1" connectable="0" parent="2LNgUr5yJm29Q_zIvUYa-75">
          <mxGeometry x="0.3328" y="1" relative="1" as="geometry">
            <mxPoint x="5" y="10" as="offset" />
          </mxGeometry>
        </mxCell>
        <mxCell id="2LNgUr5yJm29Q_zIvUYa-78" style="rounded=0;orthogonalLoop=1;jettySize=auto;html=1;strokeColor=default;endArrow=none;endFill=0;" edge="1" parent="1" source="2LNgUr5yJm29Q_zIvUYa-79" target="2LNgUr5yJm29Q_zIvUYa-120">
          <mxGeometry relative="1" as="geometry" />
        </mxCell>
        <mxCell id="2LNgUr5yJm29Q_zIvUYa-79" value="EMPREGADO" style="whiteSpace=wrap;html=1;align=center;fillColor=#d5e8d4;strokeColor=#82b366;" vertex="1" parent="1">
          <mxGeometry x="-413" y="150" width="100" height="40" as="geometry" />
        </mxCell>
        <mxCell id="2LNgUr5yJm29Q_zIvUYa-80" style="rounded=0;orthogonalLoop=1;jettySize=auto;html=1;strokeColor=default;endArrow=none;endFill=0;" edge="1" parent="1" source="2LNgUr5yJm29Q_zIvUYa-81" target="2LNgUr5yJm29Q_zIvUYa-79">
          <mxGeometry relative="1" as="geometry" />
        </mxCell>
        <mxCell id="2LNgUr5yJm29Q_zIvUYa-81" value="nome" style="ellipse;whiteSpace=wrap;html=1;align=center;" vertex="1" parent="1">
          <mxGeometry x="-563" y="90" width="100" height="40" as="geometry" />
        </mxCell>
        <mxCell id="2LNgUr5yJm29Q_zIvUYa-82" style="rounded=0;orthogonalLoop=1;jettySize=auto;html=1;strokeColor=default;endArrow=none;endFill=0;" edge="1" parent="1" source="2LNgUr5yJm29Q_zIvUYa-83" target="2LNgUr5yJm29Q_zIvUYa-79">
          <mxGeometry relative="1" as="geometry" />
        </mxCell>
        <mxCell id="2LNgUr5yJm29Q_zIvUYa-83" value="endereço" style="ellipse;whiteSpace=wrap;html=1;align=center;" vertex="1" parent="1">
          <mxGeometry x="-263" y="90" width="100" height="40" as="geometry" />
        </mxCell>
        <mxCell id="2LNgUr5yJm29Q_zIvUYa-84" style="rounded=0;orthogonalLoop=1;jettySize=auto;html=1;strokeColor=default;endArrow=none;endFill=0;" edge="1" parent="1" source="2LNgUr5yJm29Q_zIvUYa-85" target="2LNgUr5yJm29Q_zIvUYa-79">
          <mxGeometry relative="1" as="geometry" />
        </mxCell>
        <mxCell id="2LNgUr5yJm29Q_zIvUYa-85" value="cpf" style="ellipse;whiteSpace=wrap;html=1;align=center;fontStyle=4;" vertex="1" parent="1">
          <mxGeometry x="-563" y="210" width="100" height="40" as="geometry" />
        </mxCell>
        <mxCell id="2LNgUr5yJm29Q_zIvUYa-86" style="rounded=0;orthogonalLoop=1;jettySize=auto;html=1;strokeColor=default;endArrow=none;endFill=0;" edge="1" parent="1" source="2LNgUr5yJm29Q_zIvUYa-87" target="2LNgUr5yJm29Q_zIvUYa-79">
          <mxGeometry relative="1" as="geometry" />
        </mxCell>
        <mxCell id="2LNgUr5yJm29Q_zIvUYa-87" value="data_nascimento" style="ellipse;whiteSpace=wrap;html=1;align=center;" vertex="1" parent="1">
          <mxGeometry x="-563" y="150" width="100" height="40" as="geometry" />
        </mxCell>
        <mxCell id="2LNgUr5yJm29Q_zIvUYa-88" style="rounded=0;orthogonalLoop=1;jettySize=auto;html=1;strokeColor=default;endArrow=none;endFill=0;" edge="1" parent="1" source="2LNgUr5yJm29Q_zIvUYa-92" target="2LNgUr5yJm29Q_zIvUYa-111">
          <mxGeometry relative="1" as="geometry" />
        </mxCell>
        <mxCell id="2LNgUr5yJm29Q_zIvUYa-89" value="N" style="edgeLabel;html=1;align=center;verticalAlign=middle;resizable=0;points=[];" vertex="1" connectable="0" parent="2LNgUr5yJm29Q_zIvUYa-88">
          <mxGeometry x="0.2391" y="-1" relative="1" as="geometry">
            <mxPoint x="2" y="3" as="offset" />
          </mxGeometry>
        </mxCell>
        <mxCell id="2LNgUr5yJm29Q_zIvUYa-90" style="rounded=0;orthogonalLoop=1;jettySize=auto;html=1;strokeColor=default;endArrow=none;endFill=0;" edge="1" parent="1" source="2LNgUr5yJm29Q_zIvUYa-92" target="2LNgUr5yJm29Q_zIvUYa-114">
          <mxGeometry relative="1" as="geometry" />
        </mxCell>
        <mxCell id="2LNgUr5yJm29Q_zIvUYa-91" value="1" style="edgeLabel;html=1;align=center;verticalAlign=middle;resizable=0;points=[];" vertex="1" connectable="0" parent="2LNgUr5yJm29Q_zIvUYa-90">
          <mxGeometry x="0.0703" y="-2" relative="1" as="geometry">
            <mxPoint x="2" y="-5" as="offset" />
          </mxGeometry>
        </mxCell>
        <mxCell id="2LNgUr5yJm29Q_zIvUYa-92" value="PROJETO" style="whiteSpace=wrap;html=1;align=center;fillColor=#d5e8d4;strokeColor=#82b366;" vertex="1" parent="1">
          <mxGeometry x="-413" y="380" width="100" height="40" as="geometry" />
        </mxCell>
        <mxCell id="2LNgUr5yJm29Q_zIvUYa-93" style="rounded=0;orthogonalLoop=1;jettySize=auto;html=1;strokeColor=default;endArrow=none;endFill=0;" edge="1" parent="1" source="2LNgUr5yJm29Q_zIvUYa-94" target="2LNgUr5yJm29Q_zIvUYa-92">
          <mxGeometry relative="1" as="geometry" />
        </mxCell>
        <mxCell id="2LNgUr5yJm29Q_zIvUYa-94" value="verba" style="ellipse;whiteSpace=wrap;html=1;align=center;" vertex="1" parent="1">
          <mxGeometry x="-263" y="380" width="100" height="40" as="geometry" />
        </mxCell>
        <mxCell id="2LNgUr5yJm29Q_zIvUYa-95" style="rounded=0;orthogonalLoop=1;jettySize=auto;html=1;strokeColor=default;endArrow=none;endFill=0;" edge="1" parent="1" target="2LNgUr5yJm29Q_zIvUYa-92">
          <mxGeometry relative="1" as="geometry">
            <mxPoint x="-363" y="470" as="sourcePoint" />
          </mxGeometry>
        </mxCell>
        <mxCell id="2LNgUr5yJm29Q_zIvUYa-96" value="código" style="ellipse;whiteSpace=wrap;html=1;align=center;" vertex="1" parent="1">
          <mxGeometry x="-413" y="470" width="100" height="40" as="geometry" />
        </mxCell>
        <mxCell id="2LNgUr5yJm29Q_zIvUYa-97" style="rounded=0;orthogonalLoop=1;jettySize=auto;html=1;strokeColor=default;endArrow=none;endFill=0;" edge="1" parent="1" source="2LNgUr5yJm29Q_zIvUYa-98" target="2LNgUr5yJm29Q_zIvUYa-92">
          <mxGeometry relative="1" as="geometry" />
        </mxCell>
        <mxCell id="2LNgUr5yJm29Q_zIvUYa-98" value="nome" style="ellipse;whiteSpace=wrap;html=1;align=center;" vertex="1" parent="1">
          <mxGeometry x="-563" y="380" width="100" height="40" as="geometry" />
        </mxCell>
        <mxCell id="2LNgUr5yJm29Q_zIvUYa-99" style="rounded=0;orthogonalLoop=1;jettySize=auto;html=1;strokeColor=default;endArrow=none;endFill=0;" edge="1" parent="1" source="2LNgUr5yJm29Q_zIvUYa-100" target="2LNgUr5yJm29Q_zIvUYa-79">
          <mxGeometry relative="1" as="geometry" />
        </mxCell>
        <mxCell id="2LNgUr5yJm29Q_zIvUYa-100" value="telefone&lt;br&gt;" style="ellipse;shape=doubleEllipse;margin=3;whiteSpace=wrap;html=1;align=center;" vertex="1" parent="1">
          <mxGeometry x="-263" y="150" width="100" height="40" as="geometry" />
        </mxCell>
        <mxCell id="2LNgUr5yJm29Q_zIvUYa-101" style="rounded=0;orthogonalLoop=1;jettySize=auto;html=1;strokeColor=default;endArrow=none;endFill=0;" edge="1" parent="1" source="2LNgUr5yJm29Q_zIvUYa-102" target="2LNgUr5yJm29Q_zIvUYa-83">
          <mxGeometry relative="1" as="geometry" />
        </mxCell>
        <mxCell id="2LNgUr5yJm29Q_zIvUYa-102" value="nro" style="ellipse;whiteSpace=wrap;html=1;align=center;" vertex="1" parent="1">
          <mxGeometry x="-133" y="90" width="100" height="40" as="geometry" />
        </mxCell>
        <mxCell id="2LNgUr5yJm29Q_zIvUYa-103" style="rounded=0;orthogonalLoop=1;jettySize=auto;html=1;strokeColor=default;endArrow=none;endFill=0;" edge="1" parent="1" source="2LNgUr5yJm29Q_zIvUYa-104" target="2LNgUr5yJm29Q_zIvUYa-83">
          <mxGeometry relative="1" as="geometry" />
        </mxCell>
        <mxCell id="2LNgUr5yJm29Q_zIvUYa-104" value="nome_rua" style="ellipse;whiteSpace=wrap;html=1;align=center;" vertex="1" parent="1">
          <mxGeometry x="-133" y="40" width="100" height="40" as="geometry" />
        </mxCell>
        <mxCell id="2LNgUr5yJm29Q_zIvUYa-105" style="rounded=0;orthogonalLoop=1;jettySize=auto;html=1;strokeColor=default;endArrow=none;endFill=0;" edge="1" parent="1" source="2LNgUr5yJm29Q_zIvUYa-106" target="2LNgUr5yJm29Q_zIvUYa-83">
          <mxGeometry relative="1" as="geometry" />
        </mxCell>
        <mxCell id="2LNgUr5yJm29Q_zIvUYa-106" value="cep" style="ellipse;whiteSpace=wrap;html=1;align=center;" vertex="1" parent="1">
          <mxGeometry x="-133" y="140" width="100" height="40" as="geometry" />
        </mxCell>
        <mxCell id="2LNgUr5yJm29Q_zIvUYa-107" style="rounded=0;orthogonalLoop=1;jettySize=auto;html=1;strokeColor=default;endArrow=none;endFill=0;" edge="1" parent="1" source="2LNgUr5yJm29Q_zIvUYa-108" target="2LNgUr5yJm29Q_zIvUYa-79">
          <mxGeometry relative="1" as="geometry" />
        </mxCell>
        <mxCell id="2LNgUr5yJm29Q_zIvUYa-108" value="total" style="ellipse;whiteSpace=wrap;html=1;align=center;dashed=1;" vertex="1" parent="1">
          <mxGeometry x="-263" y="210" width="100" height="40" as="geometry" />
        </mxCell>
        <mxCell id="2LNgUr5yJm29Q_zIvUYa-109" style="rounded=0;orthogonalLoop=1;jettySize=auto;html=1;strokeColor=default;endArrow=none;endFill=0;" edge="1" parent="1" source="2LNgUr5yJm29Q_zIvUYa-111" target="2LNgUr5yJm29Q_zIvUYa-79">
          <mxGeometry relative="1" as="geometry" />
        </mxCell>
        <mxCell id="2LNgUr5yJm29Q_zIvUYa-110" value="N" style="edgeLabel;html=1;align=center;verticalAlign=middle;resizable=0;points=[];" vertex="1" connectable="0" parent="2LNgUr5yJm29Q_zIvUYa-109">
          <mxGeometry x="-0.3076" y="1" relative="1" as="geometry">
            <mxPoint as="offset" />
          </mxGeometry>
        </mxCell>
        <mxCell id="2LNgUr5yJm29Q_zIvUYa-111" value="TRABALHA&lt;br&gt;" style="shape=rhombus;perimeter=rhombusPerimeter;whiteSpace=wrap;html=1;align=center;" vertex="1" parent="1">
          <mxGeometry x="-516" y="260" width="120" height="60" as="geometry" />
        </mxCell>
        <mxCell id="2LNgUr5yJm29Q_zIvUYa-112" style="rounded=0;orthogonalLoop=1;jettySize=auto;html=1;strokeColor=default;endArrow=none;endFill=0;" edge="1" parent="1" source="2LNgUr5yJm29Q_zIvUYa-114" target="2LNgUr5yJm29Q_zIvUYa-79">
          <mxGeometry relative="1" as="geometry" />
        </mxCell>
        <mxCell id="2LNgUr5yJm29Q_zIvUYa-113" value="1" style="edgeLabel;html=1;align=center;verticalAlign=middle;resizable=0;points=[];" vertex="1" connectable="0" parent="2LNgUr5yJm29Q_zIvUYa-112">
          <mxGeometry x="-0.1365" y="-1" relative="1" as="geometry">
            <mxPoint x="1" y="6" as="offset" />
          </mxGeometry>
        </mxCell>
        <mxCell id="2LNgUr5yJm29Q_zIvUYa-114" value="GERENCIA" style="shape=rhombus;perimeter=rhombusPerimeter;whiteSpace=wrap;html=1;align=center;" vertex="1" parent="1">
          <mxGeometry x="-333" y="260" width="120" height="60" as="geometry" />
        </mxCell>
        <mxCell id="2LNgUr5yJm29Q_zIvUYa-115" style="rounded=0;orthogonalLoop=1;jettySize=auto;html=1;strokeColor=default;endArrow=none;endFill=0;" edge="1" parent="1" source="2LNgUr5yJm29Q_zIvUYa-119" target="2LNgUr5yJm29Q_zIvUYa-65">
          <mxGeometry relative="1" as="geometry" />
        </mxCell>
        <mxCell id="2LNgUr5yJm29Q_zIvUYa-116" value="1" style="edgeLabel;html=1;align=center;verticalAlign=middle;resizable=0;points=[];" vertex="1" connectable="0" parent="2LNgUr5yJm29Q_zIvUYa-115">
          <mxGeometry x="-0.7124" relative="1" as="geometry">
            <mxPoint y="-28" as="offset" />
          </mxGeometry>
        </mxCell>
        <mxCell id="2LNgUr5yJm29Q_zIvUYa-117" style="edgeStyle=none;rounded=0;orthogonalLoop=1;jettySize=auto;html=1;strokeColor=default;endArrow=none;endFill=0;" edge="1" parent="1" source="2LNgUr5yJm29Q_zIvUYa-119" target="2LNgUr5yJm29Q_zIvUYa-79">
          <mxGeometry relative="1" as="geometry" />
        </mxCell>
        <mxCell id="2LNgUr5yJm29Q_zIvUYa-118" value="N" style="edgeLabel;html=1;align=center;verticalAlign=middle;resizable=0;points=[];" vertex="1" connectable="0" parent="2LNgUr5yJm29Q_zIvUYa-117">
          <mxGeometry x="-0.1723" y="-3" relative="1" as="geometry">
            <mxPoint x="11" y="-7" as="offset" />
          </mxGeometry>
        </mxCell>
        <mxCell id="2LNgUr5yJm29Q_zIvUYa-119" value="TEM&lt;br&gt;" style="shape=rhombus;perimeter=rhombusPerimeter;whiteSpace=wrap;html=1;align=center;" vertex="1" parent="1">
          <mxGeometry x="-793" y="210" width="120" height="60" as="geometry" />
        </mxCell>
        <mxCell id="2LNgUr5yJm29Q_zIvUYa-120" value="SUPERVISIONA" style="shape=rhombus;perimeter=rhombusPerimeter;whiteSpace=wrap;html=1;align=center;fillColor=#d5e8d4;strokeColor=#82b366;" vertex="1" parent="1">
          <mxGeometry x="-423" y="30" width="120" height="60" as="geometry" />
        </mxCell>
      </root>
    </mxGraphModel>
  </diagram>
</mxfile>
